{
  "accessors": [
    {
      "bufferView": 2,
      "componentType": 5126,
      "count": 491,
      "max": [
        0.2492164969444275,
        -0.17444312572479248,
        0.9600571393966675
      ],
      "min": [
        -0.2492164969444275,
        -1.9381533861160278,
        0.2061770111322403
      ],
      "type": "VEC3"
    },
    {
      "bufferView": 2,
      "byteOffset": 5892,
      "componentType": 5126,
      "count": 491,
      "max": [
        1.0,
        1.0,
        1.0
      ],
      "min": [
        -1.0,
        -1.0,
        -0.4397448003292084
      ],
      "type": "VEC3"
    },
    {
      "bufferView": 3,
      "componentType": 5126,
      "count": 491,
      "max": [
        0.9998767375946045,
        0.8010701537132263,
        0.9954226613044739,
        1.0
      ],
      "min": [
        -0.3917006552219391,
        -0.7847149968147278,
        -0.9954227805137634,
        1.0
      ],
      "type": "VEC4"
    },
    {
      "bufferView": 1,
      "componentType": 5126,
      "count": 491,
      "max": [
        0.99921715259552,
        0.7126585841178894
      ],
      "min": [
        0.0018441618885844946,
        0.001718450104817748
      ],
      "type": "VEC2"
    },
    {
      "bufferView": 0,
      "componentType": 5125,
      "count": 2676,
      "type": "SCALAR"
    },
    {
      "bufferView": 2,
      "byteOffset": 11784,
      "componentType": 5126,
      "count": 11076,
      "max": [
        2.1575188636779785,
        0.19665555655956268,
        0.19421100616455078
      ],
      "min": [
        -2.1575188636779785,
        -4.377110004425049,
        -0.1434624195098877
      ],
      "type": "VEC3"
    },
    {
      "bufferView": 2,
      "byteOffset": 144696,
      "componentType": 5126,
      "count": 11076,
      "max": [
        0.9960914254188538,
        0.9984440207481384,
        0.9978422522544861
      ],
      "min": [
        -0.9960915446281433,
        -0.9984402060508728,
        -0.9978423118591309
      ],
      "type": "VEC3"
    },
    {
      "bufferView": 3,
      "byteOffset": 7856,
      "componentType": 5126,
      "count": 11076,
      "max": [
        0.9967106580734253,
        0.9987941980361938,
        0.997356116771698,
        1.0
      ],
      "min": [
        -0.9967101216316223,
        -0.9987313747406006,
        -0.9972987771034241,
        1.0
      ],
      "type": "VEC4"
    },
    {
      "bufferView": 1,
      "byteOffset": 3928,
      "componentType": 5126,
      "count": 11076,
      "max": [
        0.991182804107666,
        0.9792165160179138
      ],
      "min": [
        0.008817112073302269,
        0.008817115798592567
      ],
      "type": "VEC2"
    },
    {
      "bufferView": 0,
      "byteOffset": 10704,
      "componentType": 5125,
      "count": 16614,
      "type": "SCALAR"
    },
    {
      "bufferView": 2,
      "byteOffset": 277608,
      "componentType": 5126,
      "count": 32978,
      "max": [
        2.9417057037353516,
        4.330330848693848,
        0.2915124297142029
      ],
      "min": [
        -2.9417057037353516,
        -4.636296272277832,
        -0.46796783804893494
      ],
      "type": "VEC3"
    },
    {
      "bufferView": 2,
      "byteOffset": 673344,
      "componentType": 5126,
      "count": 32978,
      "max": [
        1.0,
        1.0,
        1.0
      ],
      "min": [
        -1.0,
        -1.0,
        -1.0
      ],
      "type": "VEC3"
    },
    {
      "bufferView": 3,
      "byteOffset": 185072,
      "componentType": 5126,
      "count": 32978,
      "max": [
        1.0,
        1.0,
        1.0,
        1.0
      ],
      "min": [
        -1.0,
        -1.0,
        -1.0,
        -1.0
      ],
      "type": "VEC4"
    },
    {
      "bufferView": 1,
      "byteOffset": 92536,
      "componentType": 5126,
      "count": 32978,
      "max": [
        0.9788122773170471,
        0.9927744269371033
      ],
      "min": [
        0.00722561776638031,
        0.007225626613944769
      ],
      "type": "VEC2"
    },
    {
      "bufferView": 0,
      "byteOffset": 77160,
      "componentType": 5125,
      "count": 100692,
      "type": "SCALAR"
    },
    {
      "bufferView": 2,
      "byteOffset": 1069080,
      "componentType": 5126,
      "count": 10013,
      "max": [
        2.9264652729034424,
        0.021651342511177063,
        0.4925270676612854
      ],
      "min": [
        -2.9264652729034424,
        -5.112262725830078,
        -0.5586990714073181
      ],
      "type": "VEC3"
    },
    {
      "bufferView": 2,
      "byteOffset": 1189236,
      "componentType": 5126,
      "count": 10013,
      "max": [
        1.0,
        1.0,
        1.0
      ],
      "min": [
        -1.0,
        -1.0,
        -1.0
      ],
      "type": "VEC3"
    },
    {
      "bufferView": 3,
      "byteOffset": 712720,
      "componentType": 5126,
      "count": 10013,
      "max": [
        1.0,
        1.0,
        1.0,
        1.0
      ],
      "min": [
        -1.0,
        -1.0,
        -1.0,
        -1.0
      ],
      "type": "VEC4"
    },
    {
      "bufferView": 1,
      "byteOffset": 356360,
      "componentType": 5126,
      "count": 10013,
      "max": [
        0.991473376750946,
        0.9643082618713379
      ],
      "min": [
        0.008526613004505634,
        0.008526651188731194
      ],
      "type": "VEC2"
    },
    {
      "bufferView": 0,
      "byteOffset": 479928,
      "componentType": 5125,
      "count": 31356,
      "type": "SCALAR"
    },
    {
      "bufferView": 2,
      "byteOffset": 1309392,
      "componentType": 5126,
      "count": 21016,
      "max": [
        2.984830856323242,
        5.771277904510498,
        0.7200809121131897
      ],
      "min": [
        -2.984830856323242,
        -4.957363605499268,
        -0.5055067539215088
      ],
      "type": "VEC3"
    },
    {
      "bufferView": 2,
      "byteOffset": 1561584,
      "componentType": 5126,
      "count": 21016,
      "max": [
        1.0,
        1.0,
        1.0
      ],
      "min": [
        -1.0,
        -1.0,
        -1.0
      ],
      "type": "VEC3"
    },
    {
      "bufferView": 3,
      "byteOffset": 872928,
      "componentType": 5126,
      "count": 21016,
      "max": [
        1.0,
        1.0,
        1.0,
        1.0
      ],
      "min": [
        -1.0,
        -1.0,
        -1.0,
        -1.0
      ],
      "type": "VEC4"
    },
    {
      "bufferView": 1,
      "byteOffset": 436464,
      "componentType": 5126,
      "count": 21016,
      "max": [
        0.9973230361938477,
        0.9973230957984924
      ],
      "min": [
        0.002690237481147051,
        0.002728123217821121
      ],
      "type": "VEC2"
    },
    {
      "bufferView": 0,
      "byteOffset": 605352,
      "componentType": 5125,
      "count": 58827,
      "type": "SCALAR"
    },
    {
      "bufferView": 2,
      "byteOffset": 1813776,
      "componentType": 5126,
      "count": 1464,
      "max": [
        2.8368020057678223,
        2.4030191898345947,
        0.30798232555389404
      ],
      "min": [
        -2.8368020057678223,
        -3.385589361190796,
        -0.15988530218601227
      ],
      "type": "VEC3"
    },
    {
      "bufferView": 2,
      "byteOffset": 1831344,
      "componentType": 5126,
      "count": 1464,
      "max": [
        0.9994217157363892,
        0.9996785521507263,
        1.0
      ],
      "min": [
        -0.9994217157363892,
        -1.0,
        -0.7742135524749756
      ],
      "type": "VEC3"
    },
    {
      "bufferView": 1,
      "byteOffset": 604592,
      "componentType": 5126,
      "count": 1464,
      "max": [
        0.9860919117927551,
        0.9613835215568542
      ],
      "min": [
        0.004574354737997055,
        0.02465035952627659
      ],
      "type": "VEC2"
    },
    {
      "bufferView": 0,
      "byteOffset": 840660,
      "componentType": 5125,
      "count": 3435,
      "type": "SCALAR"
    }
  ],
  "asset": {
    "extras": {
      "author": "C.J..Goldman (https://sketchfab.com/C.J..Goldman)",
      "license": "CC-BY-4.0 (http://creativecommons.org/licenses/by/4.0/)",
      "source": "https://sketchfab.com/3d-models/mandalorian-n1-a83ea17c6b45438187e1ea97b44c8cfa",
      "title": "Mandalorian N1"
    },
    "generator": "Sketchfab-16.16.0",
    "version": "2.0"
  },
  "bufferViews": [
    {
      "buffer": 0,
      "byteLength": 854400,
      "name": "floatBufferViews",
      "target": 34963
    },
    {
      "buffer": 0,
      "byteLength": 616304,
      "byteOffset": 854400,
      "byteStride": 8,
      "name": "floatBufferViews",
      "target": 34962
    },
    {
      "buffer": 0,
      "byteLength": 1848912,
      "byteOffset": 1470704,
      "byteStride": 12,
      "name": "floatBufferViews",
      "target": 34962
    },
    {
      "buffer": 0,
      "byteLength": 1209184,
      "byteOffset": 3319616,
      "byteStride": 16,
      "name": "floatBufferViews",
      "target": 34962
    }
  ],
  "buffers": [
    {
      "byteLength": 4528800,
      "uri": "scene.bin"
    }
  ],
  "extensionsUsed": [
    "KHR_materials_transmission",
    "KHR_materials_specular"
  ],
  "images": [
    {
      "uri": "textures/Glass_baseColor.png"
    },
    {
      "uri": "textures/Glass_metallicRoughness.png"
    },
    {
      "uri": "textures/Glass_normal.png"
    },
    {
      "uri": "textures/Panel_interiors_baseColor.png"
    },
    {
      "uri": "textures/Panel_interiors_metallicRoughness.png"
    },
    {
      "uri": "textures/Panel_interiors_normal.png"
    },
    {
      "uri": "textures/Pipes_and_engine_baseColor.png"
    },
    {
      "uri": "textures/Pipes_and_engine_metallicRoughness.png"
    },
    {
      "uri": "textures/Pipes_and_engine_normal.png"
    },
    {
      "uri": "textures/Guns_baseColor.png"
    },
    {
      "uri": "textures/Guns_metallicRoughness.png"
    },
    {
      "uri": "textures/Guns_normal.png"
    },
    {
      "uri": "textures/Metal_baseColor.jpeg"
    },
    {
      "uri": "textures/Metal_metallicRoughness.png"
    },
    {
      "uri": "textures/Metal_normal.png"
    },
    {
      "uri": "textures/Dark_baseColor.png"
    },
    {
      "uri": "textures/Dark_metallicRoughness.png"
    }
  ],
  "materials": [
    {
      "alphaMode": "BLEND",
      "doubleSided": true,
      "extensions": {
        "KHR_materials_transmission": {
          "transmissionFactor": 0.9045253963291994
        }
      },
      "name": "Glass",
      "normalTexture": {
        "index": 2,
        "scale": 0.8199049518235032
      },
      "pbrMetallicRoughness": {
        "baseColorFactor": [
          1.0,
          1.0,
          1.0,
          0.25
        ],
        "baseColorTexture": {
          "index": 0
        },
        "metallicFactor": 0.0,
        "metallicRoughnessTexture": {
          "index": 1
        }
      }
    },
    {
      "doubleSided": true,
      "name": "Panel_interiors",
      "normalTexture": {
        "index": 5
      },
      "pbrMetallicRoughness": {
        "baseColorTexture": {
          "index": 3
        },
        "metallicRoughnessTexture": {
          "index": 4
        }
      }
    },
    {
      "doubleSided": true,
      "name": "Pipes_and_engine",
      "normalTexture": {
        "index": 8
      },
      "pbrMetallicRoughness": {
        "baseColorTexture": {
          "index": 6
        },
        "metallicRoughnessTexture": {
          "index": 7
        }
      }
    },
    {
      "doubleSided": true,
      "name": "Guns",
      "normalTexture": {
        "index": 11
      },
      "pbrMetallicRoughness": {
        "baseColorTexture": {
          "index": 9
        },
        "metallicRoughnessTexture": {
          "index": 10
        }
      }
    },
    {
      "doubleSided": true,
      "extensions": {
        "KHR_materials_specular": {
          "specularColorFactor": [
            1.0,
            1.0,
            1.0
          ],
          "specularFactor": 0.667713702211591
        }
      },
      "name": "Metal",
      "normalTexture": {
        "index": 14,
        "scale": 0.4850842026772962
      },
      "pbrMetallicRoughness": {
        "baseColorTexture": {
          "index": 12
        },
        "metallicRoughnessTexture": {
          "index": 13
        }
      }
    },
    {
      "doubleSided": true,
      "name": "Dark",
      "pbrMetallicRoughness": {
        "baseColorTexture": {
          "index": 15
        },
        "metallicRoughnessTexture": {
          "index": 16
        },
        "roughnessFactor": 0.631187802304732
      }
    }
  ],
  "meshes": [
    {
      "name": "Cockpit glass_Glass_0",
      "primitives": [
        {
          "attributes": {
            "NORMAL": 1,
            "POSITION": 0,
            "TANGENT": 2,
            "TEXCOORD_0": 3
          },
          "indices": 4,
          "material": 0,
          "mode": 4
        }
      ]
    },
    {
      "name": "Panel interiors_Panel interiors_0",
      "primitives": [
        {
          "attributes": {
            "NORMAL": 6,
            "POSITION": 5,
            "TANGENT": 7,
            "TEXCOORD_0": 8
          },
          "indices": 9,
          "material": 1,
          "mode": 4
        }
      ]
    },
    {
      "name": "Side engine interior, pipes_Pipes and engine_0",
      "primitives": [
        {
          "attributes": {
            "NORMAL": 11,
            "POSITION": 10,
            "TANGENT": 12,
            "TEXCOORD_0": 13
          },
          "indices": 14,
          "material": 2,
          "mode": 4
        }
      ]
    },
    {
      "name": "Guns _Guns_0",
      "primitives": [
        {
          "attributes": {
            "NORMAL": 16,
            "POSITION": 15,
            "TANGENT": 17,
            "TEXCOORD_0": 18
          },
          "indices": 19,
          "material": 3,
          "mode": 4
        }
      ]
    },
    {
      "name": "Exterior_Metal_0",
      "primitives": [
        {
          "attributes": {
            "NORMAL": 21,
            "POSITION": 20,
            "TANGENT": 22,
            "TEXCOORD_0": 23
          },
          "indices": 24,
          "material": 4,
          "mode": 4
        }
      ]
    },
    {
      "name": "Exterior_Dark_0",
      "primitives": [
        {
          "attributes": {
            "NORMAL": 26,
            "POSITION": 25,
            "TEXCOORD_0": 27
          },
          "indices": 28,
          "material": 5,
          "mode": 4
        }
      ]
    }
  ],
  "nodes": [
    {
      "children": [
        1
      ],
      "matrix": [
        1.0,
        0.0,
        0.0,
        0.0,
        0.0,
        2.220446049250313e-16,
        -1.0,
        0.0,
        0.0,
        1.0,
        2.220446049250313e-16,
        0.0,
        0.0,
        0.0,
        0.0,
        1.0
      ],
      "name": "Sketchfab_model"
    },
    {
      "children": [
        2
      ],
      "matrix": [
        0.009999999776482582,
        0.0,
        0.0,
        0.0,
        0.0,
        0.0,
        0.009999999776482582,
        0.0,
        0.0,
        -0.009999999776482582,
        0.0,
        0.0,
        0.0,
        0.0,
        0.0,
        1.0
      ],
      "name": "N1 June 6.fbx"
    },
    {
      "children": [
        3,
        5,
        7,
        9,
        11
      ],
      "name": "RootNode"
    },
    {
      "children": [
        4
      ],
      "matrix": [
        100.0,
        0.0,
        0.0,
        0.0,
        0.0,
        -1.629206793918314e-05,
        -99.99999999999868,
        0.0,
        0.0,
        99.99999999999868,
        -1.629206793918314e-05,
        0.0,
        0.0,
        0.0,
        0.0,
        1.0
      ],
      "name": "Cockpit glass"
    },
    {
      "mesh": 0,
      "name": "Cockpit glass_Glass_0"
    },
    {
      "children": [
        6
      ],
      "matrix": [
        100.0,
        0.0,
        0.0,
        0.0,
        0.0,
        -1.629206793918314e-05,
        -99.99999999999868,
        0.0,
        0.0,
        99.99999999999868,
        -1.629206793918314e-05,
        0.0,
        0.0,
        0.0,
        0.0,
        1.0
      ],
      "name": "Panel interiors"
    },
    {
      "mesh": 1,
      "name": "Panel interiors_Panel interiors_0"
    },
    {
      "children": [
        8
      ],
      "matrix": [
        100.0,
        0.0,
        0.0,
        0.0,
        0.0,
        -1.629206793918314e-05,
        -99.99999999999868,
        0.0,
        0.0,
        99.99999999999868,
        -1.629206793918314e-05,
        0.0,
        0.0,
        0.0,
        0.0,
        1.0
      ],
      "name": "Side engine interior, pipes"
    },
    {
      "mesh": 2,
      "name": "Side engine interior, pipes_Pipes and engine_0"
    },
    {
      "children": [
        10
      ],
      "matrix": [
        100.0,
        0.0,
        0.0,
        0.0,
        0.0,
        -1.629206793918314e-05,
        -99.99999999999868,
        0.0,
        0.0,
        99.99999999999868,
        -1.629206793918314e-05,
        0.0,
        0.0,
        0.0,
        0.0,
        1.0
      ],
      "name": "Guns "
    },
    {
      "mesh": 3,
      "name": "Guns _Guns_0"
    },
    {
      "children": [
        12,
        13
      ],
      "matrix": [
        100.0,
        0.0,
        0.0,
        0.0,
        0.0,
        -1.629206793918314e-05,
        -99.99999999999868,
        0.0,
        0.0,
        99.99999999999868,
        -1.629206793918314e-05,
        0.0,
        0.0,
        0.0,
        0.0,
        1.0
      ],
      "name": "Exterior"
    },
    {
      "mesh": 4,
      "name": "Exterior_Metal_0"
    },
    {
      "mesh": 5,
      "name": "Exterior_Dark_0"
    }
  ],
  "samplers": [
    {
      "magFilter": 9729,
      "minFilter": 9987,
      "wrapS": 10497,
      "wrapT": 10497
    }
  ],
  "scene": 0,
  "scenes": [
    {
      "name": "Sketchfab_Scene",
      "nodes": [
        0
      ]
    }
  ],
  "textures": [
    {
      "sampler": 0,
      "source": 0
    },
    {
      "sampler": 0,
      "source": 1
    },
    {
      "sampler": 0,
      "source": 2
    },
    {
      "sampler": 0,
      "source": 3
    },
    {
      "sampler": 0,
      "source": 4
    },
    {
      "sampler": 0,
      "source": 5
    },
    {
      "sampler": 0,
      "source": 6
    },
    {
      "sampler": 0,
      "source": 7
    },
    {
      "sampler": 0,
      "source": 8
    },
    {
      "sampler": 0,
      "source": 9
    },
    {
      "sampler": 0,
      "source": 10
    },
    {
      "sampler": 0,
      "source": 11
    },
    {
      "sampler": 0,
      "source": 12
    },
    {
      "sampler": 0,
      "source": 13
    },
    {
      "sampler": 0,
      "source": 14
    },
    {
      "sampler": 0,
      "source": 15
    },
    {
      "sampler": 0,
      "source": 16
    }
  ]
}
