<svg xmlns="http://www.w3.org/2000/svg" version="1.1" xmlns:xlink="http://www.w3.org/1999/xlink" xmlns:svgjs="http://svgjs.dev/svgjs" width="2000" height="1480" viewBox="0 0 2000 1480"><g transform="matrix(1,0,0,1,-2.2324059247204104,-2.3853651439154646)"><svg viewBox="0 0 335 248" data-background-color="#000000" preserveAspectRatio="xMidYMid meet" height="1480" width="2000" xmlns="http://www.w3.org/2000/svg" xmlns:xlink="http://www.w3.org/1999/xlink"><g id="tight-bounds" transform="matrix(1,0,0,1,0.3739279923906622,0.39992084111409554)"><svg viewBox="0 0 334.251847511737 247.2" height="247.2" width="334.251847511737"><rect width="334.2521440152187" height="247.20036932395948" fill="url(#de29c7cf-9acc-4738-8091-0dd5bd6fb293)" mask="url(#bb0ab3f3-6954-450e-8a37-92e3d5be7b9f)" data-fill-palette-color="tertiary"></rect><g><svg viewBox="0 0 334.2518475117371 247.20000000000002" height="247.2" width="334.251847511737"><g><svg viewBox="0 0 334.2518475117371 247.20000000000002" height="247.20000000000002" width="334.2518475117371"><g id="textblocktransform"><svg viewBox="0 0 334.2518475117371 247.20000000000002" height="247.20000000000002" width="334.2518475117371" id="textblock"><g><svg viewBox="0 0 334.2518475117371 247.20000000000002" height="247.20000000000002" width="334.2518475117371"><path d="M333.469 53.02C331.898 27.36 327.419 20.227 327.419 20.227 313.67-6.202 296.51-0.506 281.095 3.292 253.878 3.446 226.772 9.091 199.618 12.119 142.624 12.581 85.143 4.986 28.431 23.717 23.104 29.464-5.527 24.846 0.948 56.304 2.645 69.39 8.836 83.913 8.647 95.922 9.496 98.026 10.674 93.202 11.177 96.23 12.937 104.39 15.813 100.541 18.17 105.365 14.886 118.246 17.243 128.971 19.49 140.21 15.53 143.135 10.454 141.749 8.176 151.449 7.94 158.479 6.667 157.145 5.269 156.837 4.247 156.632 2.189 157.402 2.535 159.608 3.713 167.152-1.347 171.514 1.828 178.904-0.357 186.91 3.336 193.838 2.833 202.511 2.77 204.255 3.116 205.744 3.666 206.154 6.102 208.361 2.55 212.672 2.927 217.342 27.913 249.262 55.019 227.195 80.617 241.872 87.264 231.608 82.267 245.516 84.923 243.36 86.997 240.846 88.505 251.263 90.847 245.362 91.208 243.668 90.658 239.665 91.947 240.435 92.622 240.846 93.22 240.743 93.314 238.382 93.455 234.841 92.214 237.048 91.884 235.201 95.451 225.861 94.571 248.081 97.918 247.158 97.761 244.438 96.787 240.538 98.782 241.051 100.762 237.151 100.825 233.918 102.585 242.693 102.648 244.592 102.962 245.926 103.465 246.85 108.965 237.305 114.433 250.237 120.2 245.926 123.736 241.205 127.13 248.492 130.713 246.696 131.97 245.259 133.243 242.693 134.453 247.004 149.271 247.928 165.063 244.079 179.112 247.158 216.652 241.41 256.77 249.518 296.353 241.923 305.687 238.998 315.383 234.841 324.481 231.506 324.481 231.506 331.851 222.371 331.851 181.316S333.422 145.393 333.658 112.703C333.894 80.013 334.994 78.679 333.422 53.02Z" opacity="1" fill="url(#de29c7cf-9acc-4738-8091-0dd5bd6fb293)" data-fill-palette-color="tertiary"></path><g transform="matrix(1,0,0,1,55.76832,26.230666666666668)"><svg width="222.7152075117371" viewBox="0 -35 40.6 35.5" height="194.7386666666667" data-palette-color="#000000"><path d="M25.45 0.5L25.45 0.5 15.2 0 10.8 0 10.8-3.75 15.2-3.75 15.2-31.1Q9.1-30.65 6.55-28.95 4-27.25 4-24.3L4-24.3Q4-22.8 4.65-21.83 5.3-20.85 6.55-20.85L6.55-20.85Q8.9-20.85 8.9-24.8L8.9-24.8 12.9-24.8Q12.9-21.55 11.4-19.33 9.9-17.1 6.55-17.1 3.2-17.1 1.6-19.2 0-21.3 0-24.3L0-24.3Q0-29.2 4.65-32.1 9.3-35 19.53-35 29.75-35 35.18-29.88 40.6-24.75 40.6-16L40.6-16Q40.6-7.4 35.75-2.9L35.75-2.9Q32.05 0.5 25.45 0.5ZM25.45-3.25L25.45-3.25Q28.45-3.25 30.65-4.38 32.85-5.5 34-7.4L34-7.4Q36.1-11.05 36.1-16L36.1-16Q36.1-23.25 31.85-27.25 27.6-31.25 19.45-31.25L19.45-31.25 19.45-3.55Q24.05-3.25 25.45-3.25Z" opacity="1" transform="matrix(1,0,0,1,0,0)" fill="#000000" class="wordmark-text-0" data-fill-palette-color="quaternary" id="text-0"></path></svg></g></svg></g></svg></g></svg></g></svg></g><defs></defs><mask id="bb0ab3f3-6954-450e-8a37-92e3d5be7b9f"><g id="SvgjsG1134"><svg viewBox="0 0 334.251847511737 247.2" height="247.2" width="334.251847511737"><g><svg viewBox="0 0 334.2518475117371 247.20000000000002" height="247.2" width="334.251847511737"><g><svg viewBox="0 0 334.2518475117371 247.20000000000002" height="247.20000000000002" width="334.2518475117371"><g id="SvgjsG1133"><svg viewBox="0 0 334.2518475117371 247.20000000000002" height="247.20000000000002" width="334.2518475117371" id="SvgjsSvg1132"><g><svg viewBox="0 0 334.2518475117371 247.20000000000002" height="247.20000000000002" width="334.2518475117371"><path d="M333.469 53.02C331.898 27.36 327.419 20.227 327.419 20.227 313.67-6.202 296.51-0.506 281.095 3.292 253.878 3.446 226.772 9.091 199.618 12.119 142.624 12.581 85.143 4.986 28.431 23.717 23.104 29.464-5.527 24.846 0.948 56.304 2.645 69.39 8.836 83.913 8.647 95.922 9.496 98.026 10.674 93.202 11.177 96.23 12.937 104.39 15.813 100.541 18.17 105.365 14.886 118.246 17.243 128.971 19.49 140.21 15.53 143.135 10.454 141.749 8.176 151.449 7.94 158.479 6.667 157.145 5.269 156.837 4.247 156.632 2.189 157.402 2.535 159.608 3.713 167.152-1.347 171.514 1.828 178.904-0.357 186.91 3.336 193.838 2.833 202.511 2.77 204.255 3.116 205.744 3.666 206.154 6.102 208.361 2.55 212.672 2.927 217.342 27.913 249.262 55.019 227.195 80.617 241.872 87.264 231.608 82.267 245.516 84.923 243.36 86.997 240.846 88.505 251.263 90.847 245.362 91.208 243.668 90.658 239.665 91.947 240.435 92.622 240.846 93.22 240.743 93.314 238.382 93.455 234.841 92.214 237.048 91.884 235.201 95.451 225.861 94.571 248.081 97.918 247.158 97.761 244.438 96.787 240.538 98.782 241.051 100.762 237.151 100.825 233.918 102.585 242.693 102.648 244.592 102.962 245.926 103.465 246.85 108.965 237.305 114.433 250.237 120.2 245.926 123.736 241.205 127.13 248.492 130.713 246.696 131.97 245.259 133.243 242.693 134.453 247.004 149.271 247.928 165.063 244.079 179.112 247.158 216.652 241.41 256.77 249.518 296.353 241.923 305.687 238.998 315.383 234.841 324.481 231.506 324.481 231.506 331.851 222.371 331.851 181.316S333.422 145.393 333.658 112.703C333.894 80.013 334.994 78.679 333.422 53.02Z" opacity="1" fill="white"></path><g transform="matrix(1,0,0,1,55.76832,26.230666666666668)"><svg width="222.7152075117371" viewBox="0 -35 40.6 35.5" height="194.7386666666667" data-palette-color="#000000"><path d="M25.45 0.5L25.45 0.5 15.2 0 10.8 0 10.8-3.75 15.2-3.75 15.2-31.1Q9.1-30.65 6.55-28.95 4-27.25 4-24.3L4-24.3Q4-22.8 4.65-21.83 5.3-20.85 6.55-20.85L6.55-20.85Q8.9-20.85 8.9-24.8L8.9-24.8 12.9-24.8Q12.9-21.55 11.4-19.33 9.9-17.1 6.55-17.1 3.2-17.1 1.6-19.2 0-21.3 0-24.3L0-24.3Q0-29.2 4.65-32.1 9.3-35 19.53-35 29.75-35 35.18-29.88 40.6-24.75 40.6-16L40.6-16Q40.6-7.4 35.75-2.9L35.75-2.9Q32.05 0.5 25.45 0.5ZM25.45-3.25L25.45-3.25Q28.45-3.25 30.65-4.38 32.85-5.5 34-7.4L34-7.4Q36.1-11.05 36.1-16L36.1-16Q36.1-23.25 31.85-27.25 27.6-31.25 19.45-31.25L19.45-31.25 19.45-3.55Q24.05-3.25 25.45-3.25Z" opacity="1" transform="matrix(1,0,0,1,0,0)" fill="black" class="wordmark-text-0" id="SvgjsPath1131"></path></svg></g></svg></g></svg></g></svg></g></svg></g><defs><mask></mask></defs></svg><rect width="334.251847511737" height="247.2" fill="black" stroke="none" visibility="hidden"></rect></g></mask><linearGradient x1="0.054" x2="0.941" y1="0.5" y2="0.5" id="de29c7cf-9acc-4738-8091-0dd5bd6fb293"><stop stop-color="#864d25" offset="0"></stop><stop stop-color="#f1c4b3" offset="0.498"></stop><stop stop-color="#864d25" offset="1"></stop></linearGradient></svg><rect width="334.251847511737" height="247.2" fill="none" stroke="none" visibility="hidden"></rect></g></svg></g></svg>