<svg xmlns="http://www.w3.org/2000/svg" version="1.1" xmlns:xlink="http://www.w3.org/1999/xlink" xmlns:svgjs="http://svgjs.dev/svgjs" width="1500" height="1500" viewBox="0 0 1500 1500"><rect width="1500" height="1500" fill="none"></rect><g transform="matrix(0.6666666666666666,0,0,0.6666666666666666,248.44244080996884,189.33333333333348)"><svg viewBox="0 0 321 360" data-background-color="#ffffff" preserveAspectRatio="xMidYMid meet" height="1682" width="1500" xmlns="http://www.w3.org/2000/svg" xmlns:xlink="http://www.w3.org/1999/xlink"><g id="tight-bounds" transform="matrix(1,0,0,1,0.5000234999999975,0)"><svg viewBox="0 0 320 360" height="360" width="320"><g><svg></svg></g><g><svg viewBox="0 0 320 360" height="360" width="320"><g><path transform="translate(-74.99272,-51.79039) scale(4.65793,4.65793)" d="M20.6 59.9l0.8 1-0.4-1.3c-0.1-0.6-0.8 0.1-0.4 0.3M21.5 59.3c0.3 0.5 0.6 1 0.6 1.5 0 0.7 0.6 1 1.1 1.2-0.7-0.8-1.1-3-1.7-2.7M59.9 16.9c1.7 0 3.3-0.2 5.1 0.2 4.4 1.1 8.1 3.3 10.6 6.4l7 11.2c0.3 2.8 0.9 5.9 0.8 9.3 0.7 0 0.6-1 1.4-1.2-0.8 2-1.2 4.5-1.4 7.4-0.5-1.6 0-4 0.1-5.3-0.7 1.1-1.1 0.3-1.1-0.2 0.1-0.8-0.3-0.7-0.6-1-1.1-1-1.8-2.1-2.6-3.8 0.5-1.3 0.6-3.2-1-4.2-0.5-0.3-1.1-0.8-1.4-1.6-0.4-1.1-1.1-2.4-0.9-4.1 0.1-0.5-1.5 1.1-2.4 0.4-3.9-2.7-7.8-5.8-12.5-8.4-2.5 0-4.3-0.9-5.2-2-0.8-1-0.2-2.3 1-2.4 0.7 0 1.5-0.2 2.1 0.2 0.1-0.4 0.5-0.9 1-0.9M50 14.6l0.2 0.1c1 0.2 1.5 1.6 2.6 1.1 0 0.7 0.1 1.4-0.1 1.9-0.3 0.8-1.2 0.8-1.9 0.8-6.7-0.4-10.6 2.4-14.7 4.8-1.1 0.7-2.3 1.2-3.2 2.1-4.3 4-9 7.7-10.1 15.1l-0.9 8.2c-0.1 0.9-1.1 1.8-0.9 2.9l0.7 4.9c-0.7-0.7-1.1 0.2-0.9 0.6 0.1 0.3 0.5 1.3 1.1 0.4 0.8 1.5 1.6 4.4 2.7 5.7 3.4 4 7.8 7.6 11.4 11.2 0.9-0.2 1.6-0.2 1.8-0.8 0.3 0.6-0.3 1.2-0.8 1.3 1.6 1 3.4 1.9 5.8 2.1 3.1 0.2 6 0.7 8.7 1.4 1.4-0.4 2.8-0.6 4.3-0.7 0.5 0 0.8-0.8 1.4-1l0.1-1c0.6 0.9 0.5-0.3 0.1-0.9 0.7 0.6 0.9 1.1 1.2 1.5 0-0.3 0.8-1.4 0.8-0.1l0.2-1.3c0.3-0.2 0.4 1.1 0.7 0.2 0.3-0.9 0.9-0.2 1.5-0.5-0.2 0.4-0.1 1.2 0.6 0.7l0.8-0.7c0.5 1.2 1.3 0.7 1.7 0.5 4.4-2.8 8.8-6.1 13-9.4l-0.1 1.3 0.5-1.6c0.5 0.5 0.9 0.1 1.1-0.2 0.6-1 1.4-2 2.7-2.9-1.6 4.3-3.5 7.7-5.9 10.5l-1 1.2c0 0.7-0.2 1.6-1 1.7-0.4 0.1-1.2-0.2-1.8 0.4-0.3 0.4 0.7 1.2-0.1 0.6-0.7-0.5-1.4 0-2.2 0.2-0.6 0.2 0.4 0.8 0.6 1.2 0.2 0.4 0.4 0.8 0.3 1.3l-1.1-1.2c-1.3 0.7-2.1 2-3.2 3-0.5 0.4-0.3 1.1-0.3 1.7-0.7 0-1.5-0.2-1.9 0.2-0.3 0.4-0.2 1-0.2 1.6-1-0.1-1.1-1.6-2-1.3-0.9 0.2-1.9 0.3-2.7 0.8 0.6 1.2-1 0.5-0.8 0.7-1.5-0.9-2.8-1.6-4.4-1-3.4-1.1-7.6-0.6-10.7-0.2 0-0.5 0.1-1-0.1-1.1-0.2 0.5-0.8 0.3-0.7 0.3-1.9-1.3-3.8-2.1-5.8-3.2-1.8 0.2-3.5-0.7-4-1.2-1.4-1.3-3-0.6-4.3-0.9-2.8-0.7-3.8-3.6-4.1-5.6-0.2-1-1-1.4-1.3-1.3-1.3-4.2-3.3-8-4.9-11.9-0.4-1-0.3-2-0.3-3.1 0.5 0.2 1 0.1 0.9-0.6-0.5-3.3-1.7-5.8-3-8.2 0.7-3.4 0.8-7.4 2.4-10.4 1.4-2.7 4-4.1 5.8-6.4 0.6-0.8 0.6-1.9 1.2-2.6 2-2 4-4.1 6.2-5.9 1-0.8 2.2 0 3.7-0.3 0.5-1.8 2.5-3.4 4.4-2.9 0.8 0.2 2.4-1.9 2.9-2.1 0.8-0.3 0.4 0.8 0.4 1.5 1.9-1.5 4.5-2.3 6.9-3.2" fill="#ffffff" fill-rule="nonzero" stroke="none" stroke-width="1" stroke-linecap="butt" stroke-linejoin="miter" stroke-miterlimit="10" stroke-dasharray="" stroke-dashoffset="0" font-family="none" font-weight="none" font-size="none" text-anchor="none" style="mix-blend-mode: normal" data-fill-palette-color="tertiary"></path></g><g transform="matrix(1,0,0,1,64,131.9126991986099)"><svg viewBox="0 0 192 96.17460160278021" height="96.17460160278021" width="192"><g><svg viewBox="0 0 335.15397990147784 167.88177339901478" height="96.17460160278021" width="192"><g><svg viewBox="0 0 192 167.88177339901478" height="167.88177339901478" width="192"><g id="textblocktransform"><svg viewBox="0 0 192 167.88177339901478" height="167.88177339901478" width="192" id="textblock"><g><svg viewBox="0 0 192 167.88177339901478" height="167.88177339901478" width="192"><g transform="matrix(1,0,0,1,0,0)"><svg width="192" viewBox="0 -35 40.6 35.5" height="167.88177339901478" data-palette-color="#001f3f"><path d="M25.45 0.5L25.45 0.5 15.2 0 10.8 0 10.8-3.75 15.2-3.75 15.2-31.1Q9.1-30.65 6.55-28.95 4-27.25 4-24.3L4-24.3Q4-22.8 4.65-21.83 5.3-20.85 6.55-20.85L6.55-20.85Q8.9-20.85 8.9-24.8L8.9-24.8 12.9-24.8Q12.9-21.55 11.4-19.33 9.9-17.1 6.55-17.1 3.2-17.1 1.6-19.2 0-21.3 0-24.3L0-24.3Q0-29.2 4.65-32.1 9.3-35 19.53-35 29.75-35 35.18-29.88 40.6-24.75 40.6-16L40.6-16Q40.6-7.4 35.75-2.9L35.75-2.9Q32.05 0.5 25.45 0.5ZM25.45-3.25L25.45-3.25Q28.45-3.25 30.65-4.38 32.85-5.5 34-7.4L34-7.4Q36.1-11.05 36.1-16L36.1-16Q36.1-23.25 31.85-27.25 27.6-31.25 19.45-31.25L19.45-31.25 19.45-3.55Q24.05-3.25 25.45-3.25Z" opacity="1" transform="matrix(1,0,0,1,0,0)" fill="#ffffff" class="wordmark-text-0" data-fill-palette-color="primary" id="text-0"></path></svg></g></svg></g></svg></g></svg></g><g transform="matrix(1,0,0,1,216.49797990147783,24.606335527626193)"><svg viewBox="0 0 118.656 118.66910234376239" height="118.66910234376239" width="118.656"><g><svg xmlns="http://www.w3.org/2000/svg" xmlns:xlink="http://www.w3.org/1999/xlink" version="1.1" x="0" y="0" viewBox="13.960700411101797 13.852 76.0785991777964 76.08699999999999" enable-background="new 0 0 100 100" xml:space="preserve" height="118.66910234376239" width="118.656" class="icon-icon-0" data-fill-palette-color="accent" id="icon-0"><g fill="#ff585f" data-fill-palette-color="accent"><circle fill="#ffffff" cx="53.115" cy="51.448" r="6.8" data-fill-palette-color="accent"></circle><path fill="#ffffff" d="M52.891 89.939C42.403 89.939 33.87 72.873 33.87 51.895S42.402 13.852 52.891 13.852 71.912 30.918 71.912 51.895C71.912 72.873 63.379 89.939 52.891 89.939M52.891 14.747C42.897 14.747 34.765 31.412 34.765 51.895S42.897 89.043 52.891 89.043 71.018 72.378 71.018 51.895 62.886 14.747 52.891 14.747" data-fill-palette-color="accent"></path><path fill="#ffffff" d="M33.639 79.375C29.414 79.375 26.106 78.092 24.071 75.665 17.643 67.999 25.492 50.798 41.566 37.32 52.049 28.529 64.02 23.069 72.805 23.069 77.031 23.069 80.339 24.352 82.374 26.779 85.528 30.541 85.409 36.628 82.039 43.917 78.718 51.099 72.623 58.63 64.878 65.124 54.394 73.914 42.424 79.375 33.639 79.375M72.805 23.963C64.221 23.963 52.471 29.344 42.14 38.005 26.444 51.166 18.646 67.802 24.756 75.089 26.615 77.307 29.688 78.479 33.639 78.479 42.223 78.479 53.973 73.099 64.304 64.437 71.95 58.026 77.959 50.604 81.227 43.54 84.444 36.583 84.608 30.834 81.689 27.352 79.829 25.135 76.757 23.963 72.805 23.963" data-fill-palette-color="accent"></path><path fill="#ffffff" d="M70.918 80.303C61.89 80.303 49.89 74.45 39.601 65.03 24.13 50.863 17.306 33.044 24.389 25.309 26.552 22.947 29.868 21.698 33.976 21.698 43.004 21.698 55.004 27.55 65.293 36.971 80.764 51.138 87.588 68.957 80.506 76.692 78.343 79.054 75.027 80.303 70.918 80.303M33.976 22.593C30.125 22.593 27.038 23.741 25.049 25.913 18.299 33.285 25.099 50.536 40.206 64.369 50.336 73.645 62.104 79.408 70.918 79.408 74.77 79.408 77.856 78.26 79.846 76.087 86.595 68.716 79.795 51.464 64.688 37.631 54.558 28.355 42.79 22.593 33.976 22.593" data-fill-palette-color="accent"></path><path fill="#ffffff" d="M52.971 70.03C52.544 70.03 52.118 70.027 51.687 70.02 30.713 69.673 13.79 60.86 13.962 50.373 14.132 40.054 30.414 31.97 51.03 31.97 51.457 31.97 51.884 31.973 52.313 31.98 73.287 32.327 90.21 41.14 90.038 51.626 89.868 61.947 73.587 70.03 52.971 70.03M51.03 32.865C31.243 32.865 15.015 40.725 14.856 50.387 14.692 60.381 31.22 68.786 51.702 69.124 72.1 69.479 88.981 61.48 89.144 51.612 89.308 41.619 72.78 33.214 52.298 32.876A77 77 0 0 0 51.03 32.865" data-fill-palette-color="accent"></path><circle fill="#ffffff" cx="22.46" cy="31.307" r="1.8" data-fill-palette-color="accent"></circle><circle fill="#ffffff" cx="62.294" cy="19.67" r="1.8" data-fill-palette-color="accent"></circle><circle fill="#ffffff" cx="79.75" cy="56.819" r="1.8" data-fill-palette-color="accent"></circle><circle fill="#ffffff" cx="45.286" cy="85.911" r="1.8" data-fill-palette-color="accent"></circle><circle fill="#ffffff" cx="25.146" cy="57.267" r="1.8" data-fill-palette-color="accent"></circle><circle fill="#ffffff" cx="64.979" cy="63.98" r="1.8" data-fill-palette-color="accent"></circle><circle fill="#ffffff" cx="87.331" cy="44.227" r="1.8" data-fill-palette-color="accent"></circle></g></svg></g></svg></g></svg></g></svg></g></svg></g><defs></defs></svg><rect width="320" height="360" fill="none" stroke="none" visibility="hidden"></rect></g></svg></g></svg>